<svg width="25" height="32" viewBox="0 0 25 32" fill="none" xmlns="http://www.w3.org/2000/svg">
<path d="M9.82031 1.95312V14.4453H15.6094C16.9375 14.4453 17.9062 14.1562 18.5156 13.5781C19.1406 12.9844 19.5547 11.8203 19.7578 10.0859H20.625V20.8438H19.7578C19.7422 19.6094 19.5781 18.7031 19.2656 18.125C18.9688 17.5469 18.5469 17.1172 18 16.8359C17.4688 16.5391 16.6719 16.3906 15.6094 16.3906H9.82031V26.375C9.82031 27.9844 9.92188 29.0469 10.125 29.5625C10.2812 29.9531 10.6094 30.2891 11.1094 30.5703C11.7969 30.9453 12.5156 31.1328 13.2656 31.1328H14.4141V32H0.773438V31.1328H1.89844C3.21094 31.1328 4.16406 30.75 4.75781 29.9844C5.13281 29.4844 5.32031 28.2812 5.32031 26.375V5.84375C5.32031 4.23438 5.21875 3.17188 5.01562 2.65625C4.85938 2.26562 4.53906 1.92969 4.05469 1.64844C3.38281 1.27344 2.66406 1.08594 1.89844 1.08594H0.773438V0.21875H24.4219L24.7266 7.20312H23.9062C23.5 5.71875 23.0234 4.63281 22.4766 3.94531C21.9453 3.24219 21.2812 2.73437 20.4844 2.42188C19.7031 2.10938 18.4844 1.95312 16.8281 1.95312H9.82031Z" fill="black"/>
</svg>
